<svg xmlns="http://www.w3.org/2000/svg" width="32.826" height="30.6" viewBox="0 0 32.826 30.6">
  <path id="Caminho_43" data-name="Caminho 43" d="M123.031,54.863a3.617,3.617,0,0,0-1.341,6.984l-1.329,4.8a4.668,4.668,0,0,0-.886-.082,4.6,4.6,0,0,0-3.323,1.411l-2.227-1.819a3.068,3.068,0,0,0,.49-1.667,3.143,3.143,0,1,0-.968,2.239l2.239,1.831a4.592,4.592,0,0,0,3.789,7.205,4.654,4.654,0,0,0,1.259-.175l1.364,3.684a2.926,2.926,0,1,0,1.236-.28,2.98,2.98,0,0,0-.525.047l-1.376-3.708a4.653,4.653,0,0,0,2.04-1.854l5.771,2.763a1.582,1.582,0,0,0-.07.431,1.665,1.665,0,1,0,.42-1.1L123.8,72.807a4.581,4.581,0,0,0,.3-1.632,4.524,4.524,0,0,0-.07-.781l10.878-2.787a2.826,2.826,0,1,0-.21-1.061,3,3,0,0,0,.023.338l-10.878,2.787a4.651,4.651,0,0,0-2.763-2.81l1.329-4.8a3.581,3.581,0,0,0,.618.058,3.626,3.626,0,1,0,0-7.252Zm0,.746a2.88,2.88,0,1,1,0,5.76,2.934,2.934,0,0,1-.746-.093h0l-.047-.011a2.882,2.882,0,0,1,.793-5.655Zm-11.753,6.506a2.373,2.373,0,1,1-2.378,2.378A2.375,2.375,0,0,1,111.278,62.115Zm26.269,2.344a2.093,2.093,0,1,1-2.017,2.635h0a.4.4,0,0,0-.023-.047,2.352,2.352,0,0,1-.058-.5,2.1,2.1,0,0,1,2.1-2.087Zm-18.072,2.857a3.853,3.853,0,1,1-3.859,3.859A3.867,3.867,0,0,1,119.475,67.315Zm11.356,8.453a.909.909,0,1,1-.909.909A.906.906,0,0,1,130.831,75.768Zm-7.5,3.976a2.186,2.186,0,1,1-2.2,2.18A2.18,2.18,0,0,1,123.334,79.744Z" transform="translate(-107.854 -54.563)" fill="#fff" stroke="#fff" stroke-width="0.6" fill-rule="evenodd"/>
</svg>
