<svg xmlns="http://www.w3.org/2000/svg" width="29.513" height="32.619" viewBox="0 0 29.513 32.619">
  <path id="noun-home-4866173" d="M185.5,98.58a2.33,2.33,0,0,1,2.33-2.33h2.136a2.33,2.33,0,0,1,2.33,2.33v3.791l5.014-3.011a2.33,2.33,0,0,1,2.4,0l12.427,7.463a2.33,2.33,0,0,1,1.13,2v17.718a2.33,2.33,0,0,1-2.33,2.33H205.3a2.33,2.33,0,0,1-2.33-2.33v-9.974a.777.777,0,0,0-.777-.777h-7.378a.777.777,0,0,0-.777.777v9.974a2.33,2.33,0,0,1-2.33,2.33H186.08a2.33,2.33,0,0,1-2.33-2.33V108.8a2.33,2.33,0,0,1,1.085-1.969l.663-.419Zm1.553,6.9v-6.9a.777.777,0,0,1,.777-.777h2.136a.777.777,0,0,1,.777.777v4.72Zm-.372,2.023-1.014.641a.777.777,0,0,0-.362.656V126.54a.777.777,0,0,0,.777.777h5.631a.777.777,0,0,0,.777-.777v-9.974a2.33,2.33,0,0,1,2.33-2.33H202.2a2.33,2.33,0,0,1,2.33,2.33v9.974a.777.777,0,0,0,.777.777h5.631a.777.777,0,0,0,.777-.777V108.822a.777.777,0,0,0-.377-.666l-12.427-7.463a.775.775,0,0,0-.8,0l-6.2,3.721Z" transform="translate(-183.75 -96.25)" fill="#586696" fill-rule="evenodd"/>
</svg>
