<svg id="Grupo_41" data-name="Grupo 41" xmlns="http://www.w3.org/2000/svg" width="37.293" height="40" viewBox="0 0 37.293 40">
  <path id="Caminho_1" data-name="Caminho 1" d="M197.718,108.177a.615.615,0,0,0,.187-.875l-1.375-2.25a8.328,8.328,0,0,0-3.125-3.125,8.712,8.712,0,0,0-4.313-1.125H175.905a8.508,8.508,0,0,0-7.438,4.313l-6.625,11.375a8.708,8.708,0,0,0,0,8.562l6.563,11.437a8.639,8.639,0,0,0,7.438,4.313h13.187a8.911,8.911,0,0,0,4.687-1.375,9.278,9.278,0,0,0,2.75-2.875l1.375-2.25a.633.633,0,0,0-1.062-.688l-1.437,2.312a6.989,6.989,0,0,1-2.375,2.5,7.619,7.619,0,0,1-3.938,1.126H175.905a7.429,7.429,0,0,1-6.375-3.687l-6.563-11.375a7.281,7.281,0,0,1,0-7.312l6.563-11.437a7.43,7.43,0,0,1,6.375-3.687h13.187a7.4,7.4,0,0,1,6.375,3.687l1.375,2.25a.615.615,0,0,0,.875.187Z" transform="translate(-160.718 -100.802)" fill="#586696"/>
  <path id="Caminho_2" data-name="Caminho 2" d="M320.569,206.267a.576.576,0,0,0,0,.857.636.636,0,0,0,.894,0l7.471-7.164a3.84,3.84,0,0,0,0-5.572l-7.472-7.164a.636.636,0,0,0-.894,0,.576.576,0,0,0,0,.857l7.471,7.225a3.017,3.017,0,0,1,.766,1.286h-17.37a.613.613,0,1,0,0,1.225h17.37a2.7,2.7,0,0,1-.766,1.286Z" transform="translate(-294.495 -177.206)" fill="#586696"/>
</svg>
