<svg xmlns="http://www.w3.org/2000/svg" width="27.791" height="30" viewBox="0 0 27.791 30">
  <g id="Grupo_128" data-name="Grupo 128" transform="translate(21.224 -315)">
    <path id="Caminho_122" data-name="Caminho 122" d="M234.325,66.571a8.085,8.085,0,1,1,8.085-8.085A8.088,8.088,0,0,1,234.325,66.571Zm0-14.707a6.622,6.622,0,1,0,6.622,6.622A6.62,6.62,0,0,0,234.325,51.863Z" transform="translate(-241.654 264.6)" fill="#586696"/>
    <path id="Caminho_123" data-name="Caminho 123" d="M151.2,303.772a15.882,15.882,0,0,1-9.585-3.183,20.56,20.56,0,0,1-1.646-1.39,12.813,12.813,0,0,1-1.61-1.829,13.814,13.814,0,0,1-.951-1.427.7.7,0,0,1-.036-.658,11.821,11.821,0,0,1,.8-1.5,10.167,10.167,0,0,1,6.951-4.39,1.445,1.445,0,0,1,1.024.256,8.379,8.379,0,0,0,5.049,1.683,8.589,8.589,0,0,0,5.049-1.646,1.447,1.447,0,0,1,1.024-.256,10.043,10.043,0,0,1,6.951,4.39,8.5,8.5,0,0,1,.8,1.5.7.7,0,0,1-.036.658c-.293.476-.622.988-.951,1.427a12.8,12.8,0,0,1-1.61,1.829,15.042,15.042,0,0,1-1.646,1.39,16.087,16.087,0,0,1-9.585,3.147Zm-12.366-8.232c.219.329.439.658.658.951a16.064,16.064,0,0,0,1.463,1.683,17.237,17.237,0,0,0,1.5,1.281,14.71,14.71,0,0,0,8.744,2.853,14.5,14.5,0,0,0,8.744-2.89,16.345,16.345,0,0,0,1.5-1.281,13.026,13.026,0,0,0,1.463-1.683c.219-.293.439-.622.658-.951a4.664,4.664,0,0,0-.549-.915,8.476,8.476,0,0,0-5.89-3.732A9.909,9.909,0,0,1,151.2,292.8a10.122,10.122,0,0,1-5.927-1.9,8.475,8.475,0,0,0-5.89,3.732,10.017,10.017,0,0,0-.549.915Z" transform="translate(-158.531 41.228)" fill="#586696"/>
  </g>
</svg>
